<?xml version="1.0" standalone="no"?>
<!DOCTYPE svg PUBLIC "-//W3C//DTD SVG 20010904//EN"
 "http://www.w3.org/TR/2001/REC-SVG-20010904/DTD/svg10.dtd">
<svg version="1.0" xmlns="http://www.w3.org/2000/svg"
 width="728.000000pt" height="485.000000pt" viewBox="0 0 728.000000 485.000000"
 preserveAspectRatio="xMidYMid meet">

<g transform="translate(0.000000,485.000000) scale(0.100000,-0.100000)"
fill="#000000" stroke="none">
<path d="M0 2425 l0 -2425 3640 0 3640 0 0 2425 0 2425 -3640 0 -3640 0 0
-2425z m6456 2050 c10 -42 -3 -77 -29 -73 -24 3 -33 33 -23 74 9 33 44 32 52
-1z m-44 -120 c4 -16 6 -35 4 -42 -7 -18 -64 7 -70 31 -11 41 -7 47 26 44 26
-2 33 -9 40 -33z m-17 -66 c12 -19 -4 -61 -23 -57 -30 6 -28 68 2 68 8 0 18
-5 21 -11z m-1 -155 c3 -9 4 -20 1 -25 -3 -5 -1 -26 4 -46 5 -21 15 -81 20
-133 6 -52 16 -135 21 -185 13 -106 7 -145 -21 -145 -40 0 -49 53 -49 270 0
169 -2 202 -15 206 -15 6 -21 55 -8 67 12 13 41 7 47 -9z m-1756 -88 c-84 -23
-137 -75 -169 -169 -13 -36 -18 -44 -19 -27 0 36 43 120 78 153 32 31 92 56
132 56 16 0 8 -5 -22 -13z m138 -2 c115 -33 177 -140 145 -251 -6 -22 -6 -37
3 -48 11 -16 13 -15 27 1 8 11 9 15 2 10 -15 -8 -17 3 -4 23 8 13 12 13 26 1
16 -13 15 -16 -13 -40 l-30 -25 40 -143 c35 -129 42 -182 18 -143 -6 11 -9 10
-12 -5 -1 -10 -18 35 -35 99 -18 64 -31 122 -29 129 1 7 1 9 -2 4 -2 -4 -8 -3
-12 4 -6 10 -14 7 -31 -9 -12 -11 -27 -21 -33 -21 -5 0 -1 7 10 16 17 14 17
15 1 10 -17 -5 -17 -3 4 30 20 33 18 32 -28 -14 -95 -95 -204 -97 -297 -6 -22
22 -36 32 -31 24 6 -12 5 -12 -5 -3 -12 11 -16 27 -19 83 -1 20 -3 22 -11 10
-16 -25 -12 5 11 77 21 65 70 132 112 155 17 9 16 5 -6 -23 -13 -19 -32 -50
-41 -69 -16 -34 -12 -29 29 33 11 17 36 39 55 50 l35 19 -28 -22 c-31 -25 -71
-98 -80 -148 -20 -101 67 -232 153 -232 57 0 137 70 170 150 11 26 10 33 -5
50 -10 11 -18 33 -19 49 -1 16 -4 27 -7 25 -9 -5 -21 27 -14 34 3 3 5 -1 5 -8
0 -7 2 -11 5 -8 7 7 -5 39 -14 35 -3 -2 -22 15 -41 37 -19 23 -28 35 -20 29
23 -21 35 -15 15 7 -10 11 -26 20 -36 20 -10 0 -21 5 -24 10 -8 13 -3 13 61
-6z m844 -454 c0 -5 -5 -21 -12 -35 -12 -28 -34 -35 -23 -7 4 9 10 25 12 35 6
18 23 24 23 7z m-64 -79 c-31 -34 -94 -73 -113 -69 -13 2 -5 10 27 27 25 13
56 34 69 47 28 28 43 23 17 -5z m-166 -90 c0 -5 -12 -11 -27 -14 -26 -5 -26
-4 -8 9 22 16 35 18 35 5z m-950 -11 c0 -5 -5 -10 -11 -10 -5 0 -7 5 -4 10 3
6 8 10 11 10 2 0 4 -4 4 -10z m-36 -25 c-4 -8 -12 -15 -18 -15 -7 0 -18 -11
-24 -25 -6 -14 -16 -25 -22 -25 -19 0 -10 31 16 55 30 28 57 33 48 10z m133
-32 c-3 -10 -5 -2 -5 17 0 19 2 27 5 18 2 -10 2 -26 0 -35z m493 -4 c0 -5 -7
-9 -15 -9 -15 0 -20 12 -9 23 8 8 24 -1 24 -14z m1580 -108 c0 -20 -38 -54
-53 -48 -22 8 -22 53 0 66 18 10 53 -2 53 -18z m-1562 -5 c45 3 70 -1 85 -11
18 -13 19 -15 4 -15 -9 0 -17 -4 -17 -10 0 -5 14 -10 31 -10 28 0 30 2 18 17
-13 15 -11 16 14 11 18 -4 30 -1 34 7 3 10 20 12 61 8 31 -2 64 -7 72 -10 8
-3 44 -8 80 -10 85 -4 118 -12 101 -22 -9 -6 0 -11 26 -16 21 -5 41 -8 44 -7
4 1 5 -7 2 -18 -4 -15 -1 -18 16 -13 11 3 29 2 38 -2 10 -5 27 -7 38 -6 17 2
17 0 5 -8 -13 -9 -13 -11 3 -11 9 0 17 5 17 10 0 6 8 10 18 10 13 0 14 -2 4
-9 -11 -6 -9 -9 6 -13 26 -7 41 3 39 27 -2 15 3 19 18 17 34 -6 83 -33 89 -49
9 -23 -2 -29 -25 -14 -12 7 -24 10 -27 6 -4 -3 0 -10 7 -14 7 -5 10 -14 7 -20
-5 -8 0 -8 18 -1 35 13 80 2 106 -25 23 -24 60 -24 40 0 -8 9 -4 14 15 17 28
6 35 1 35 -22 0 -17 51 -52 71 -48 18 4 48 -53 31 -59 -17 -7 15 -60 41 -67
15 -4 18 -10 14 -27 -4 -13 -2 -41 3 -64 19 -86 20 -148 4 -172 -8 -13 -12
-28 -9 -33 3 -6 0 -10 -8 -10 -8 0 -22 -11 -31 -25 -10 -15 -22 -22 -31 -19
-24 10 -18 34 9 34 15 0 26 7 29 20 4 15 0 20 -13 20 -11 0 -22 5 -25 10 -3 6
-19 10 -35 10 -21 0 -28 4 -24 14 4 11 0 13 -14 9 -11 -2 -33 2 -50 11 -38 20
-66 21 -32 1 19 -11 21 -14 7 -15 -10 0 -22 -11 -27 -25 -12 -31 -35 -41 -55
-25 -10 9 -15 9 -15 1 0 -6 -5 -11 -12 -11 -6 0 -1 12 13 27 13 14 17 22 9 18
-13 -8 -13 -7 -1 9 10 12 16 14 21 5 5 -8 11 -6 18 7 10 17 3 21 -76 41 -106
27 -108 27 -116 7 -5 -14 -1 -16 23 -11 21 4 33 1 46 -13 10 -11 13 -20 7 -20
-6 0 -14 5 -17 10 -3 6 -11 10 -18 10 -8 0 -8 -3 0 -11 6 -6 9 -18 6 -25 -3
-8 1 -14 11 -14 9 0 16 -4 16 -10 0 -15 57 -41 75 -34 12 5 16 2 13 -12 -5
-31 34 -28 81 6 31 23 46 29 54 21 8 -8 8 -11 -1 -11 -7 0 -12 -7 -12 -16 0
-8 5 -12 10 -9 6 3 10 1 10 -4 0 -6 9 -11 20 -11 11 0 20 5 20 10 0 6 4 10 10
10 5 0 7 -7 3 -16 -3 -9 0 -20 7 -24 10 -6 10 -16 0 -46 -29 -95 -29 -89 1
-114 19 -14 29 -32 29 -48 l0 -25 -22 20 c-35 31 -48 36 -48 19 0 -8 10 -17
23 -19 19 -4 18 -4 -5 -6 -17 0 -28 -7 -28 -15 0 -19 -17 -29 -32 -19 -7 4
-16 8 -20 8 -12 0 -22 15 -10 15 7 0 12 11 12 24 0 27 24 51 40 41 6 -4 10 -3
9 2 -3 17 14 53 25 53 6 0 0 6 -14 14 -16 8 -29 9 -37 3 -10 -7 -13 -4 -13 11
0 14 -6 20 -19 19 -11 0 -18 -4 -15 -8 7 -11 -48 -50 -65 -46 -9 1 -15 10 -15
19 1 9 -4 14 -11 12 -6 -3 -31 0 -55 5 -31 7 -48 7 -57 -1 -21 -17 -15 -29 12
-22 15 4 32 1 40 -6 14 -11 13 -15 -5 -32 -28 -26 -25 -35 19 -58 52 -26 57
-37 21 -45 -16 -4 -39 -18 -50 -32 -25 -32 -34 -26 -20 12 6 15 9 30 7 32 -9
9 -37 -11 -37 -26 0 -9 -20 -36 -45 -60 -25 -24 -45 -41 -45 -38 0 3 12 28 27
56 28 56 28 55 -4 65 -18 6 -22 2 -28 -23 -4 -17 -6 -33 -5 -37 1 -3 -9 -15
-22 -26 -15 -14 -19 -22 -10 -25 20 -7 14 -23 -9 -23 -18 0 -20 4 -14 33 4 17
18 52 32 76 21 35 23 45 12 52 -12 8 -12 11 1 18 9 7 17 6 22 -2 5 -8 13 -6
28 8 20 18 22 18 50 1 30 -17 30 -17 40 9 15 38 12 43 -10 17 -10 -12 -21 -18
-24 -13 -3 5 -29 15 -57 22 -43 11 -50 16 -47 34 5 22 -13 45 -33 45 -7 0 -9
10 -6 27 5 25 4 26 -8 9 -8 -10 -17 -36 -20 -57 -6 -34 -3 -42 17 -58 31 -26
19 -34 -35 -26 -42 7 -45 9 -49 41 -2 19 0 34 5 34 4 0 6 4 2 10 -3 5 -12 7
-19 4 -8 -3 -17 0 -21 7 -11 17 -13 100 -3 127 5 16 3 31 -8 47 -16 25 -44 34
-44 15 0 -5 7 -7 15 -4 20 8 20 -34 -1 -61 -13 -18 -13 -21 6 -35 l20 -15 -21
-30 c-12 -16 -18 -22 -15 -12 8 25 -16 17 -29 -10 -9 -18 -13 -19 -28 -8 -16
12 -15 15 12 37 26 22 29 31 29 81 -1 31 -5 54 -10 51 -10 -6 -14 6 -22 59 -4
31 -2 37 8 28 7 -6 11 -22 8 -36 -4 -22 -1 -25 28 -25 25 0 31 3 26 16 -3 9
-6 21 -6 29 0 7 -10 16 -22 20 l-23 7 25 7 c24 7 23 8 -10 13 -32 6 -246 12
-344 10 -22 0 -52 6 -68 14 -15 8 -28 10 -28 5 0 -5 6 -12 13 -14 7 -3 5 -6
-5 -6 -10 -1 -18 5 -18 12 0 8 -3 8 -9 -2 -8 -12 -12 -13 -26 -1 -8 7 -39 13
-68 14 -37 0 -57 6 -68 18 -9 10 -21 18 -28 18 -6 0 -11 7 -11 15 0 9 -9 15
-25 15 -17 0 -25 -6 -25 -17 0 -15 -2 -15 -9 -4 -6 9 -15 11 -27 5 -11 -4 -32
-9 -49 -10 -69 -3 -71 -4 -54 -14 8 -5 52 -11 96 -14 66 -4 123 -17 123 -29 0
-1 -24 -3 -52 -4 -89 -2 -179 -11 -185 -17 -4 -3 1 -6 10 -6 8 0 25 -15 36
-33 38 -62 81 -91 133 -92 29 0 50 5 53 13 10 27 25 9 24 -30 -1 -24 -4 -33
-6 -20 -4 21 -33 32 -33 12 0 -5 -6 -10 -13 -10 -9 0 -13 -11 -12 -32 3 -38
-10 -59 -31 -51 -17 6 -19 -8 -3 -24 13 -13 3 -36 -12 -28 -5 4 -9 1 -9 -4 0
-6 -5 -11 -11 -11 -6 0 -17 -7 -25 -15 -12 -11 -20 -12 -35 -4 -11 6 -25 8
-32 5 -7 -2 -4 -5 6 -5 14 -1 17 -6 12 -21 -4 -11 -2 -21 4 -21 26 -3 30 -4
37 -11 4 -5 3 -8 -2 -8 -129 -6 -156 -20 -104 -53 35 -22 33 -19 18 -51 -8
-20 -16 -24 -33 -20 -27 7 -95 -20 -95 -38 0 -7 6 -20 13 -28 16 -20 62 -46
52 -30 -5 8 1 11 16 9 13 -1 37 3 52 9 16 7 41 12 57 12 16 0 41 5 56 10 15 6
41 8 57 4 l30 -6 -29 -13 c-16 -7 -65 -20 -109 -30 -44 -10 -111 -26 -150 -37
-101 -27 -260 -58 -335 -65 -36 -3 -71 -10 -77 -16 -16 -12 -6 -30 13 -23 8 3
14 -1 14 -9 0 -15 40 -60 62 -68 9 -4 8 -6 -3 -6 -17 -1 -34 -29 -24 -39 3 -3
5 0 5 6 0 7 5 12 10 12 6 0 10 -9 10 -20 0 -10 8 -24 18 -30 16 -10 16 -10 0
-20 -22 -13 -24 -32 -3 -24 8 4 15 1 15 -5 0 -6 14 -11 30 -11 27 0 30 -2 20
-19 -15 -30 -11 -39 5 -11 8 14 14 42 15 63 0 33 -3 38 -19 32 -19 -6 -31 17
-30 60 0 17 2 17 14 -6 7 -14 26 -31 40 -37 17 -8 25 -18 21 -27 -3 -8 3 -16
13 -20 10 -3 29 -14 41 -25 18 -16 20 -20 7 -20 -9 0 -21 -9 -27 -19 -16 -31
-12 -36 13 -14 26 24 52 34 92 38 26 3 27 1 13 -9 -21 -16 -5 -36 28 -36 26 0
28 3 38 43 6 24 1 34 -27 60 -19 18 -39 47 -45 64 -11 32 -10 32 19 29 35 -4
63 -27 79 -65 16 -38 110 -82 110 -51 0 6 -7 13 -15 16 -8 4 -12 10 -9 15 3 5
1 9 -3 9 -5 0 -9 17 -9 38 l-1 39 31 -34 c35 -38 96 -56 96 -29 0 49 69 -26
71 -77 1 -16 4 -12 11 13 l11 35 16 -47 c9 -26 19 -50 24 -54 4 -4 7 -15 7
-25 0 -10 9 -23 20 -29 20 -10 19 -12 -9 -62 -32 -55 -77 -88 -121 -87 l-25 1
25 7 c25 7 25 7 -8 19 -28 9 -38 9 -58 -4 -13 -9 -24 -12 -24 -7 0 16 39 46
63 49 12 1 24 3 27 5 7 3 23 6 37 8 7 0 10 7 7 15 -7 18 16 32 26 16 5 -8 10
-9 14 -2 6 11 -46 42 -71 42 -8 0 -11 5 -7 11 3 6 -6 3 -21 -7 -19 -13 -26
-24 -22 -41 2 -12 -2 -28 -9 -34 -11 -9 -14 -7 -14 9 0 35 -16 33 -30 -3 -8
-19 -20 -35 -28 -35 -7 0 -12 6 -9 13 2 6 0 20 -5 31 -8 14 -7 17 3 11 9 -6
11 0 6 25 -6 28 -5 31 8 20 9 -7 15 -8 15 -2 0 5 -12 18 -27 27 -25 17 -27 17
-42 -3 -20 -25 -58 -45 -65 -33 -3 4 -16 6 -30 4 -22 -5 -23 -8 -15 -36 10
-36 -2 -57 -24 -38 -8 6 -23 9 -33 6 -13 -4 -12 -2 3 6 43 23 38 63 -9 66 -22
2 -24 -1 -23 -40 1 -34 6 -44 26 -54 13 -7 19 -13 13 -13 -15 0 -25 -38 -13
-46 16 -9 10 -32 -8 -30 -13 2 -20 15 -24 42 -10 71 -33 110 -68 117 -38 8
-47 6 -43 -12 2 -8 -1 -10 -9 -5 -8 5 -10 3 -4 -7 16 -28 38 -48 46 -43 17 10
9 -13 -11 -31 -14 -13 -17 -22 -10 -35 7 -14 5 -20 -7 -24 -32 -13 16 -44 72
-48 37 -3 50 -8 49 -19 -1 -16 8 -18 126 -19 72 -1 95 -10 95 -37 0 -25 -14
-33 -62 -33 -35 0 -50 -7 -81 -35 -22 -19 -52 -54 -68 -77 -49 -73 -94 -130
-95 -121 0 4 -4 0 -7 -9 -6 -16 -12 -14 -47 17 -22 19 -51 37 -64 40 -65 17
-119 87 -136 177 l-7 35 -38 -40 c-21 -22 -44 -54 -51 -71 -7 -17 -18 -38 -26
-47 -8 -9 -15 -33 -17 -53 -2 -20 -7 -40 -11 -44 -5 -4 -5 -1 0 7 5 9 3 12 -6
9 -8 -3 -14 -14 -13 -26 0 -11 -4 -20 -9 -19 -5 1 -15 -17 -22 -40 l-12 -41
53 -7 c54 -6 85 -34 41 -36 -14 -1 -9 -4 13 -8 42 -8 74 -1 44 10 -14 5 -10 7
16 8 176 3 168 2 128 13 -21 5 -38 16 -38 23 0 15 -22 25 -56 25 -15 0 -23 4
-19 10 4 6 10 8 15 5 4 -3 10 0 12 7 3 7 24 12 51 13 25 0 41 -3 34 -7 -8 -5
-5 -8 8 -8 12 0 25 -4 30 -9 6 -5 87 -12 180 -16 94 -3 238 -13 320 -21 112
-11 239 -14 497 -12 l347 3 -22 24 c-12 14 -37 41 -56 60 l-35 36 22 -38 c21
-36 21 -37 2 -27 -11 6 -20 18 -20 27 0 10 -6 14 -20 10 -13 -3 -20 0 -20 9 0
8 -4 14 -10 14 -5 0 -7 -7 -4 -15 5 -12 0 -12 -27 -5 -17 5 -35 7 -39 5 -4 -3
-11 6 -14 20 -4 14 -13 25 -21 25 -17 0 -20 -26 -5 -35 19 -12 10 -20 -22 -18
-18 1 -34 2 -35 3 -9 7 -29 4 -35 -4 -4 -6 -14 -4 -25 6 -20 19 -53 8 -53 -17
0 -21 -17 -19 -42 5 -19 17 -19 20 -5 20 11 0 17 8 17 25 0 18 5 25 20 25 11
0 20 -7 20 -15 0 -8 5 -15 11 -15 5 0 7 5 3 11 -8 13 81 99 102 99 8 0 17 6
20 14 9 25 59 39 113 31 46 -6 49 -5 44 14 -6 22 -2 22 92 -1 38 -10 50 -18
55 -36 5 -23 5 -23 38 8 18 16 43 30 55 30 19 0 18 3 -10 20 -19 11 -40 17
-49 13 -12 -4 -15 -3 -10 5 4 7 1 12 -8 12 -9 0 -16 4 -16 10 0 5 -24 13 -52
17 -52 7 -52 7 -19 14 19 4 45 3 58 -2 33 -12 28 2 -10 28 -17 13 -26 23 -19
23 6 0 12 10 13 23 1 20 2 19 9 -5 9 -29 50 -87 50 -71 0 18 90 34 205 38 111
3 121 6 234 58 25 11 64 20 89 19 31 0 60 8 97 29 l52 28 24 -26 c16 -18 20
-27 12 -30 -7 -3 -13 -9 -13 -13 0 -18 64 18 72 40 7 20 5 22 -16 18 -18 -4
-23 -1 -18 10 3 10 1 13 -6 8 -16 -10 -62 23 -62 45 0 10 -4 21 -10 24 -5 3
-10 15 -10 26 0 18 8 19 123 19 251 0 422 -36 519 -109 53 -40 88 -85 88 -115
0 -17 -36 -40 -49 -31 -10 6 -62 13 -156 20 -73 6 -190 22 -227 31 -16 3 -28
4 -28 0 0 -3 12 -12 28 -20 l27 -15 -27 -1 c-16 0 -28 4 -28 10 0 6 -18 7 -45
3 -38 -5 -49 -2 -61 13 -9 10 -12 13 -8 5 5 -11 1 -12 -18 -8 -18 5 -30 1 -43
-13 -10 -11 -24 -20 -31 -20 -17 0 -27 -34 -19 -69 8 -39 -10 -104 -40 -139
-14 -17 -25 -36 -25 -43 0 -8 -7 -23 -15 -33 -8 -11 -15 -30 -15 -43 0 -21
-10 -28 -33 -24 -5 1 -6 -3 -2 -9 4 -6 -14 -10 -48 -10 -66 0 -89 -18 -59 -47
11 -10 30 -38 42 -63 13 -25 25 -39 27 -32 3 6 9 9 14 6 6 -3 5 -11 -2 -20 -9
-11 -8 -14 4 -14 17 0 30 26 21 43 -3 7 1 4 9 -5 17 -22 27 -23 27 -3 0 8 4
15 9 15 5 0 11 6 13 14 2 10 8 8 20 -9 17 -22 16 -24 -23 -74 -29 -36 -48 -51
-65 -51 -18 0 -24 5 -24 23 0 69 -100 202 -205 271 -22 14 -33 26 -25 27 10 0
11 2 3 6 -7 2 -13 11 -13 18 0 8 -9 17 -20 20 -11 3 -20 11 -20 16 0 6 -4 8
-9 5 -5 -3 -11 3 -14 14 -3 11 -11 19 -19 18 -8 -2 -14 8 -16 25 -2 16 -8 25
-14 21 -6 -4 -8 1 -3 16 4 14 3 20 -3 16 -5 -3 -12 3 -15 14 -3 14 -14 20 -31
20 -27 0 -34 -18 -16 -36 12 -12 -5 -68 -18 -60 -7 4 -8 -28 -3 -56 0 -4 17
-10 36 -14 19 -3 37 -10 40 -14 2 -4 -6 -5 -19 -3 -29 6 -42 -12 -25 -33 10
-12 9 -13 -7 -8 -17 7 -17 5 3 -17 18 -20 21 -34 19 -84 -2 -33 -4 -63 -5 -67
0 -3 -13 -1 -28 7 -16 7 -44 15 -63 19 l-35 6 28 -25 c15 -14 38 -25 49 -25
23 0 112 -39 105 -46 -2 -2 -21 3 -42 11 -20 9 -39 14 -41 12 -7 -7 46 -38 55
-33 12 8 134 -74 165 -111 14 -17 49 -45 76 -63 28 -18 50 -36 50 -41 0 -5
-23 -9 -51 -9 -48 0 -53 3 -114 61 -42 41 -62 67 -58 78 4 14 3 14 -6 1 -9
-13 -12 -13 -20 -1 -5 7 -14 10 -20 7 -7 -5 -10 -2 -9 6 2 7 -3 12 -9 10 -7
-1 -13 2 -13 8 0 5 -7 10 -15 10 -8 0 -15 7 -15 16 0 9 -10 24 -22 35 -28 22
-45 25 -28 4 11 -13 8 -15 -13 -15 -14 0 -32 -3 -41 -6 -10 -4 -16 -1 -16 9 0
8 5 17 11 19 16 5 -18 38 -34 33 -7 -2 -24 -6 -39 -9 -31 -7 -37 -21 -10 -24
9 -1 26 -4 37 -6 11 -2 22 -5 25 -6 3 0 -3 -5 -13 -11 -9 -6 -15 -14 -12 -19
6 -9 -23 -22 -35 -15 -4 3 -10 -1 -13 -9 -3 -8 9 -19 33 -30 29 -12 38 -22 34
-34 -5 -13 -4 -14 4 -4 8 12 15 11 41 -2 17 -9 31 -18 31 -19 0 -12 -232 -14
-276 -3 -23 6 -35 4 -47 -8 -8 -9 -20 -16 -26 -16 -6 0 -8 -6 -5 -14 3 -8 -3
-16 -15 -19 -23 -6 -29 8 -8 16 6 3 0 6 -15 6 -16 1 -28 -4 -28 -10 0 -5 5 -7
10 -4 17 10 11 -12 -7 -26 -11 -10 -14 -10 -9 -1 5 8 0 12 -13 12 -13 0 -21
-7 -21 -16 0 -12 -4 -14 -12 -7 -7 5 -42 17 -78 26 -57 14 -88 19 -210 33 -44
5 -104 14 -130 19 -14 2 -40 7 -59 10 -19 3 -37 7 -40 9 -3 2 -37 5 -76 7 -38
2 -73 8 -77 14 -5 6 -11 5 -18 -5 -6 -10 -10 -11 -10 -2 0 6 -6 12 -14 12 -8
0 -21 6 -28 14 -8 8 -58 18 -118 25 -58 7 -152 20 -210 31 -58 10 -133 21
-168 24 -34 3 -75 8 -90 11 -24 5 -25 4 -9 -7 10 -7 26 -19 35 -26 15 -12 15
-13 -3 -7 -11 4 -25 8 -32 9 -7 1 -15 5 -19 8 -3 4 -12 4 -20 1 -20 -8 -66 6
-59 17 3 6 1 10 -4 10 -6 0 -11 -5 -11 -11 0 -11 -41 -2 -50 11 -10 13 -133
42 -156 36 -13 -4 -24 -3 -24 2 0 9 -167 42 -213 42 -15 0 -27 4 -27 8 0 5
-15 7 -32 6 -30 -3 -31 -3 -8 5 l25 9 -25 2 -25 1 23 12 c17 8 25 8 30 0 4 -7
27 -16 52 -22 25 -5 75 -17 111 -26 73 -17 137 -11 119 10 -9 11 -6 12 12 8
l23 -5 -25 22 -25 21 75 -5 c41 -2 87 -8 103 -11 36 -10 35 9 -2 25 -37 15
-40 22 -47 125 -5 56 -3 93 5 113 13 30 94 98 143 119 18 8 26 17 22 27 -6 14
45 47 106 68 19 6 17 7 -10 2 -109 -18 -98 -10 35 25 105 27 154 36 163 29 8
-7 12 -7 12 1 0 6 -5 11 -11 11 -8 0 -10 15 -5 46 6 45 5 46 -19 42 -17 -4
-25 -1 -25 8 0 8 -3 13 -7 13 -5 -1 -19 -1 -33 0 l-25 2 23 11 c36 18 23 43
-21 43 -30 0 -36 3 -31 18 3 9 0 17 -6 17 -7 0 -10 8 -7 20 3 11 1 20 -4 20
-5 0 -9 5 -9 10 0 6 6 10 14 10 17 0 29 44 21 80 -5 22 -2 28 14 33 12 3 25
16 30 29 5 12 18 29 29 37 17 12 18 17 9 33 -7 10 -17 18 -24 18 -7 0 -13 5
-13 10 0 13 13 13 26 0 11 -11 54 -2 54 11 0 5 19 8 43 8 90 -3 83 -10 84 94
1 50 -1 82 -5 69 -4 -13 -11 -23 -17 -24 -5 0 -21 -5 -35 -11 -14 -6 -31 -9
-39 -8 -7 1 -10 -2 -7 -7 3 -6 -1 -12 -9 -16 -8 -3 -17 -1 -20 5 -4 5 -10 7
-15 4 -5 -3 -12 0 -15 5 -4 6 -21 10 -38 8 -29 -3 -32 0 -35 25 -4 37 10 53
82 89 34 17 62 32 64 33 7 7 -23 55 -35 55 -10 0 -11 5 -2 23 7 12 15 29 19
37 5 9 19 14 36 12 40 -3 76 17 69 39 -5 14 -1 16 16 12 19 -5 20 -3 14 18 -4
13 -12 29 -17 36 -5 6 -8 20 -6 29 2 13 -5 20 -27 24 l-30 6 25 13 c17 10 25
11 28 2 2 -6 10 -11 18 -11 13 0 33 -34 40 -70 3 -17 32 -40 51 -40 7 0 13 -7
13 -15 0 -8 4 -15 9 -15 5 0 9 11 9 25 0 17 -10 30 -35 45 -33 20 -63 70 -63
108 0 21 38 42 75 42 13 0 31 7 39 16 12 12 16 12 17 2 0 -7 4 -3 9 10 5 12
16 22 25 22 29 0 15 16 -16 18 -28 2 -30 0 -19 -13 14 -17 18 -16 -80 -19
-120 -4 -140 -6 -140 -15 0 -5 8 -7 18 -5 9 3 28 1 42 -5 l25 -10 -27 0 c-16
-1 -28 -5 -28 -11 0 -5 -13 -10 -30 -10 -16 0 -30 -5 -30 -10 0 -6 -12 -22
-27 -35 -20 -17 -31 -20 -40 -13 -22 18 -14 -1 14 -32 14 -17 30 -30 35 -30
13 0 9 28 -4 33 -7 3 7 5 32 5 25 0 35 -3 23 -5 -29 -6 -29 -15 3 -53 l26 -31
-40 7 c-34 5 -42 3 -54 -15 -14 -23 -43 -29 -35 -8 3 8 1 20 -4 28 -6 10 -9
10 -9 2 0 -7 -9 -13 -20 -13 -19 0 -25 14 -21 47 1 8 -7 9 -28 3 -24 -7 -30
-5 -34 11 -6 23 -30 25 -51 4 -18 -19 -26 -19 -26 -2 0 17 72 53 94 48 5 -1
16 1 25 5 16 8 22 9 76 18 17 2 31 5 33 5 1 1 -4 11 -12 24 -40 62 -27 177 29
262 19 29 35 59 35 68 0 16 32 39 47 35 12 -3 125 72 144 96 11 14 29 20 58
20 26 1 41 6 41 14 0 6 3 12 8 13 4 0 19 2 34 3 15 1 37 12 49 25 13 14 29 21
40 18 11 -3 22 -1 25 5 3 5 15 8 25 5 10 -3 21 -2 23 2 3 4 21 6 40 5 21 -2
36 1 36 8 0 6 11 8 28 5 15 -3 34 -2 42 3 9 6 18 5 23 -3 7 -9 10 -9 14 1 2 6
22 12 43 12 21 0 41 4 45 10 3 5 15 6 28 1 12 -4 51 -6 85 -5z m-900 -34 c2
-7 -6 -12 -17 -12 -21 0 -27 11 -14 24 9 9 26 2 31 -12z m1544 -28 c4 -3 8
-12 8 -19 0 -11 -6 -12 -24 -5 -13 5 -26 6 -29 4 -5 -5 -47 31 -47 40 0 5 80
-13 92 -20z m293 -104 c23 -25 14 -25 -27 0 -27 16 -29 20 -12 20 11 0 29 -9
39 -20z m-641 -415 c-14 -19 -27 -35 -28 -35 -1 0 0 16 2 35 4 29 8 35 29 35
l24 0 -27 -35z m-235 9 c13 -12 -13 -16 -32 -5 -15 10 -22 10 -25 2 -2 -6 -8
-11 -13 -11 -4 0 -6 7 -2 16 4 11 13 13 37 8 17 -3 33 -8 35 -10z m131 -5 c0
-6 -4 -7 -10 -4 -5 3 -10 11 -10 16 0 6 5 7 10 4 6 -3 10 -11 10 -16z m-370
-31 c0 -5 9 -22 20 -38 19 -27 47 -38 117 -44 17 -1 39 -8 47 -16 20 -16 21
-44 2 -37 -8 3 -17 3 -19 -1 -2 -4 -2 -1 -1 5 3 13 -25 33 -45 33 -6 0 -11 -9
-11 -20 0 -11 -6 -20 -14 -20 -8 0 -16 -7 -20 -15 -3 -8 -1 -15 3 -15 5 0 12
6 14 13 4 8 6 7 6 -4 1 -8 -11 -26 -25 -40 -19 -18 -24 -30 -20 -51 7 -37 -7
-35 -44 3 -35 37 -40 69 -10 69 10 0 24 9 30 21 11 20 11 20 -19 4 -34 -17
-41 -10 -13 12 50 40 63 46 75 34 19 -19 31 -12 13 8 -9 10 -34 21 -55 25 -22
3 -42 13 -45 22 -10 26 -7 76 4 69 6 -3 10 -11 10 -17z m348 -9 c-3 -8 -7 -3
-11 10 -4 17 -3 21 5 13 5 -5 8 -16 6 -23z m52 -30 c0 -21 -17 -34 -45 -34
-13 0 -21 -8 -23 -22 -4 -24 -22 -32 -22 -10 0 15 33 53 50 59 7 2 13 16 13
31 2 24 3 25 15 10 6 -9 12 -25 12 -34z m806 8 c4 -4 -2 -7 -14 -7 -12 0 -22
4 -22 9 0 10 26 9 36 -2z m-1911 -8 c10 -15 -1 -23 -20 -15 -9 3 -13 10 -10
16 8 13 22 13 30 -1z m1114 -51 c-12 -24 -28 -47 -35 -51 -8 -4 -14 -19 -14
-32 0 -19 7 -24 40 -30 22 -4 40 -11 40 -16 0 -5 -10 -5 -22 0 -13 5 -32 5
-43 0 -26 -10 -64 -11 -49 -1 18 11 26 62 13 78 -9 11 -7 14 10 14 11 0 21 4
21 10 0 8 50 69 58 70 1 0 -7 -19 -19 -42z m-142 -13 c0 -8 -6 -15 -14 -15
-17 0 -17 17 0 23 6 3 12 6 13 6 0 1 1 -6 1 -14z m25 -27 c-7 -7 -12 -8 -12
-2 0 14 12 26 19 19 2 -3 -1 -11 -7 -17z m1093 12 c3 -6 -1 -7 -9 -4 -18 7
-21 14 -7 14 6 0 13 -4 16 -10z m-1084 -51 c-25 -40 -27 -69 -6 -69 8 0 15 -4
15 -9 0 -12 -33 -9 -42 4 -15 20 -7 54 18 85 33 39 42 33 15 -11z m1119 37 c0
-2 -7 -9 -15 -16 -13 -11 -14 -10 -9 4 5 14 24 23 24 12z m-50 -21 c19 -22 8
-25 -12 -3 -10 10 -14 18 -9 18 5 0 14 -7 21 -15z m-2073 -37 c-21 -14 -28 -9
-15 12 9 13 14 16 20 7 4 -6 2 -15 -5 -19z m2024 1 c6 -13 7 -19 1 -15 -6 3
-13 0 -15 -6 -3 -7 -6 -1 -6 15 -1 32 4 34 20 6z m89 -76 c0 -19 0 -19 -28 32
l-23 40 26 -28 c14 -15 25 -35 25 -44z m-1550 -2 c0 -12 -20 -25 -27 -18 -7 7
6 27 18 27 5 0 9 -4 9 -9z m598 -9 c6 -18 -15 -14 -22 4 -4 10 -1 14 6 12 6
-2 14 -10 16 -16z m177 1 c-9 -8 -13 -19 -10 -24 9 -14 -5 -11 -21 6 -19 19
-13 30 20 31 22 2 24 0 11 -13z m-699 -41 c-9 -9 -37 8 -31 18 5 8 11 7 21 -1
8 -6 12 -14 10 -17z m158 -8 c18 -7 21 -39 5 -50 -8 -4 -9 0 -4 15 9 29 -13
27 -25 -1 -10 -26 -13 -14 -4 20 7 25 6 24 28 16z m91 -4 c3 -5 -1 -10 -9 -10
-8 0 -18 5 -21 10 -3 6 1 10 9 10 8 0 18 -4 21 -10z m349 -24 c-6 -16 -24 -23
-24 -8 0 10 22 33 27 28 2 -2 1 -11 -3 -20z m-54 4 c0 -5 -4 -10 -10 -10 -5 0
-10 5 -10 10 0 6 5 10 10 10 6 0 10 -4 10 -10z m300 -4 c0 -17 -14 -29 -23
-20 -8 8 3 34 14 34 5 0 9 -6 9 -14z m-170 -16 c0 -5 12 -13 26 -16 14 -4 23
-12 21 -18 -7 -18 55 -6 71 13 11 14 11 13 2 -6 -6 -13 -16 -23 -22 -23 -7 0
-3 -6 8 -14 29 -22 11 -29 -30 -12 -20 8 -34 11 -31 6 3 -5 1 -11 -5 -15 -5
-3 -10 3 -10 14 0 11 -11 28 -25 39 -25 20 -33 42 -15 42 6 0 10 -4 10 -10z
m660 -23 c0 -7 -4 -7 -12 1 -19 19 -30 14 -18 -8 7 -12 7 -20 1 -20 -16 0 -24
42 -10 51 14 9 39 -7 39 -24z m-183 17 c-3 -3 -12 -4 -19 -1 -8 3 -5 6 6 6 11
1 17 -2 13 -5z m92 -20 c8 -7 -4 -13 -37 -19 -28 -5 -32 -2 -32 16 0 18 4 20
33 14 17 -4 34 -9 36 -11z m-1394 -24 c3 -6 -5 -10 -19 -10 -19 0 -26 5 -26
20 0 17 3 19 19 10 11 -5 23 -15 26 -20z m1519 14 c3 -8 2 -12 -4 -9 -6 3 -10
10 -10 16 0 14 7 11 14 -7z m-257 -6 c-2 -7 0 -23 4 -36 7 -17 6 -21 -3 -16
-7 4 -28 11 -48 15 -32 6 -33 8 -12 14 14 5 21 13 18 21 -4 10 3 14 20 14 16
0 24 -5 21 -12z m-450 -4 c-3 -3 -12 -4 -19 -1 -8 3 -5 6 6 6 11 1 17 -2 13
-5z m633 -11 c12 -10 15 -20 9 -23 -5 -4 4 -7 21 -7 17 0 38 -7 47 -16 15 -15
14 -16 -23 -10 -21 3 -47 10 -57 15 -22 11 -38 1 -18 -11 9 -6 11 -16 6 -32
-8 -22 -9 -21 -20 16 -7 25 -8 45 -2 52 5 7 6 17 2 23 -10 16 13 12 35 -7z
m-533 -39 c-3 -3 -12 -4 -19 -1 -8 3 -5 6 6 6 11 1 17 -2 13 -5z m455 -30 c-3
-17 -8 -22 -15 -15 -7 7 -6 15 3 26 17 20 18 19 12 -11z m-40 -48 c-2 -18 2
-26 13 -26 13 0 14 -4 5 -20 -13 -25 -25 -26 -27 -2 -4 61 -17 78 -71 88 -22
4 -30 9 -21 14 7 5 33 0 58 -10 40 -16 46 -22 43 -44z m195 29 c14 -14 14 -18
-1 -34 -23 -25 -20 -34 10 -28 18 3 22 1 15 -6 -20 -20 -12 -37 19 -37 17 0
30 -5 30 -11 0 -5 -5 -7 -12 -3 -7 4 -8 3 -4 -5 4 -6 11 -9 16 -6 5 3 11 1 15
-5 3 -6 -4 -10 -17 -11 -13 0 -36 -2 -51 -4 -27 -4 -28 -2 -25 33 3 31 -1 41
-30 68 l-34 31 23 17 c29 20 27 20 46 1z m-337 -75 c22 -11 44 -29 50 -40 13
-24 63 -29 53 -4 -4 12 0 14 20 9 18 -5 28 -2 35 12 6 10 14 14 18 10 5 -5 2
-12 -5 -16 -11 -7 -10 -12 5 -27 11 -11 32 -25 47 -31 98 -45 -92 -83 -259
-52 -99 18 -108 49 -15 49 33 0 42 3 38 14 -7 18 27 28 42 13 8 -8 11 -8 11 0
0 11 -56 63 -68 63 -15 0 -31 40 -24 57 6 15 8 13 10 -10 3 -20 13 -32 42 -47z
m115 20 c9 -32 2 -25 -20 20 -13 27 -14 32 -2 20 8 -8 18 -26 22 -40z m-61
-26 c4 -10 1 -14 -6 -12 -15 5 -23 28 -10 28 5 0 13 -7 16 -16z m236 -64 c0
-20 -1 -20 -30 -5 -16 9 -30 18 -30 20 0 3 14 5 30 5 23 0 30 -4 30 -20z m55
-40 c3 -5 21 -9 38 -7 28 2 32 -1 32 -23 0 -21 -5 -24 -37 -25 -37 -2 -46 6
-54 48 -4 18 11 24 21 7z m-945 -162 c0 -21 39 -25 58 -6 10 10 15 10 22 -1 7
-12 11 -12 24 -2 8 7 24 10 35 6 16 -5 18 -10 10 -37 -4 -17 -6 -35 -3 -39 3
-5 0 -17 -5 -28 -9 -16 -7 -20 16 -26 18 -4 23 -9 15 -17 -8 -8 -5 -18 8 -37
24 -35 37 -76 20 -66 -9 6 -11 4 -5 -4 5 -9 15 -5 36 15 16 15 29 34 29 41 0
7 4 13 8 13 15 0 42 73 40 105 -3 25 0 29 17 27 11 -2 24 -7 28 -12 13 -11 -2
-50 -18 -50 -7 0 -19 -15 -25 -34 -6 -19 -20 -47 -32 -61 -19 -25 -19 -27 -3
-46 10 -10 20 -17 23 -14 3 3 13 -2 22 -10 16 -14 18 -12 23 27 3 23 1 48 -4
54 -6 8 -6 14 0 18 5 3 11 2 13 -3 2 -5 21 -6 43 -1 30 5 36 9 23 15 -10 4
-18 13 -18 21 0 8 -5 14 -12 14 -6 0 -4 7 5 18 10 10 17 34 17 52 0 25 3 31
11 23 7 -7 13 -24 15 -40 1 -15 8 -29 13 -31 6 -2 11 -9 11 -16 0 -7 8 -23 19
-34 11 -14 16 -31 14 -47 l-5 -24 -41 20 c-34 18 -44 19 -66 9 -15 -8 -21 -14
-13 -17 6 -3 10 -9 6 -14 -3 -5 0 -9 5 -9 6 0 11 5 11 10 0 6 5 10 12 10 7 0
6 -6 -4 -17 -9 -10 -21 -28 -27 -41 -10 -19 -9 -23 8 -30 19 -7 19 -9 6 -35
-16 -31 -3 -37 18 -7 20 29 54 33 67 10 10 -18 8 -19 -14 -10 -20 7 -29 5 -42
-8 -17 -16 -74 -25 -74 -11 0 3 -9 16 -19 28 -11 13 -17 29 -14 37 3 9 -2 14
-16 14 -12 0 -21 -6 -21 -15 0 -24 -30 -17 -40 10 -5 14 -17 25 -27 25 -17 -1
-17 -1 0 -14 23 -18 22 -21 -13 -22 -17 -1 -30 3 -30 7 0 5 4 9 10 9 5 0 7 7
4 15 -9 23 -21 18 -21 -9 0 -14 -17 -47 -37 -74 -32 -44 -41 -50 -72 -50 -23
0 -44 -8 -61 -23 -22 -20 -25 -21 -19 -5 5 14 2 17 -12 14 -21 -6 -42 20 -42
53 0 18 2 19 15 9 12 -10 15 -10 15 3 0 9 4 19 10 22 6 4 7 -1 3 -11 -4 -12
-3 -15 5 -10 7 4 12 2 12 -5 0 -8 4 -8 16 2 10 8 13 22 10 38 -3 14 -3 20 0
14 3 -7 10 -13 15 -13 6 0 8 4 5 9 -3 4 18 11 46 14 91 11 114 60 53 114 -19
17 -46 33 -60 35 -24 5 -25 3 -19 -27 8 -42 -4 -81 -19 -66 -18 18 -47 13 -47
-8 0 -28 -38 -89 -60 -96 -11 -3 -17 -12 -14 -20 3 -7 -2 -25 -11 -38 -15 -24
-15 -26 5 -32 12 -4 19 -9 16 -12 -3 -3 -17 2 -30 11 -14 9 -32 16 -41 16 -26
0 -16 19 13 22 41 5 37 39 -7 51 -19 5 -30 12 -25 15 21 16 55 74 52 90 -2 10
-14 18 -31 20 -16 2 -30 11 -33 20 -3 9 -10 25 -15 34 -9 19 -16 19 115 2 44
-5 57 -4 52 5 -4 6 -11 9 -15 7 -15 -10 -51 38 -51 69 0 9 -8 28 -17 43 -14
24 -12 23 15 -6 37 -39 57 -37 57 4 1 37 36 99 47 81 4 -6 8 -20 8 -29z m1328
-65 c5 -17 -26 -29 -40 -15 -6 6 -7 15 -3 22 9 14 37 9 43 -7z m-667 -23 c-27
-23 -68 -25 -95 -5 -17 13 -15 14 20 18 22 2 53 4 69 5 l30 1 -24 -19z m-2003
-27 c2 -13 -20 -54 -59 -110 -62 -89 -97 -132 -66 -80 10 15 15 27 12 27 -8 0
-45 -39 -45 -49 0 -8 -23 -19 -72 -35 -10 -3 -18 -10 -18 -15 0 -6 7 -8 15 -5
11 4 13 2 10 -9 -4 -9 2 -17 17 -21 15 -5 18 -9 10 -13 -8 -3 -19 0 -25 6 -6
6 -19 11 -30 11 -10 0 -15 4 -12 10 4 7 -3 7 -20 0 -15 -6 -38 -10 -53 -11
-15 0 -21 -3 -14 -6 16 -6 15 -35 -3 -59 -8 -10 -15 -38 -15 -61 0 -41 -1 -43
-30 -43 -16 0 -30 5 -30 11 0 5 -5 7 -11 4 -15 -10 -150 5 -143 16 5 8 -2 10
-48 13 -9 1 -20 4 -24 9 -4 4 -20 7 -35 7 -15 0 -29 4 -31 9 -1 5 -24 12 -50
16 -40 6 -48 5 -48 -9 0 -9 7 -16 16 -16 8 0 40 -12 70 -26 37 -18 74 -26 114
-27 35 -1 64 -8 72 -16 11 -11 4 -13 -43 -7 l-57 6 -6 -31 c-3 -17 -6 -60 -6
-94 0 -42 -5 -66 -15 -75 -9 -8 -46 -11 -114 -8 l-100 3 21 -22 21 -23 -49 15
c-27 8 -69 17 -94 20 -68 8 -184 25 -285 42 -49 8 -98 14 -107 14 -30 0 -20
16 11 21 17 2 28 1 25 -4 -3 -4 7 -8 23 -7 24 0 25 2 8 8 -15 6 -9 10 30 15
28 5 55 12 62 18 6 5 42 12 80 14 37 3 80 6 94 7 l27 2 -34 94 c-34 96 -34
108 -1 153 20 27 20 27 0 70 -28 59 -39 176 -18 184 8 4 58 -13 110 -35 144
-64 325 -119 325 -100 0 4 -5 11 -10 14 -16 10 -70 122 -70 144 0 16 10 21 53
28 28 5 70 5 92 2 22 -4 67 -12 100 -18 68 -12 155 -2 244 29 42 15 78 19 141
17 79 -2 85 -4 88 -24z m3168 -49 c-6 -17 -70 -44 -103 -44 -13 0 -34 5 -45
11 -11 6 -39 13 -62 16 -41 4 -76 23 -43 23 9 0 17 5 17 10 0 6 8 10 18 10 14
0 15 -2 2 -10 -12 -8 -9 -10 11 -10 18 0 28 6 32 19 3 11 13 20 23 20 11 1 44
4 74 9 51 7 56 6 68 -16 8 -13 11 -30 8 -38z m-283 -1 c-7 -2 -19 -2 -25 0 -7
3 -2 5 12 5 14 0 19 -2 13 -5z m-1296 -10 c-13 -3 -15 -8 -8 -17 7 -8 5 -12
-9 -13 -11 -1 -23 3 -26 9 -8 13 15 28 41 27 18 -1 18 -2 2 -6z m-874 -30 c-7
-2 -21 -2 -30 0 -10 3 -4 5 12 5 17 0 24 -2 18 -5z m382 -31 c-3 -3 -11 0 -18
7 -9 10 -8 11 6 5 10 -3 15 -9 12 -12z m-645 -23 c0 -5 5 -7 10 -4 14 9 12
-17 -4 -37 -19 -26 -29 -22 -22 8 4 16 3 23 -3 19 -7 -3 -8 0 -5 9 7 18 24 22
24 5z m-2300 -39 c0 -5 -2 -10 -4 -10 -3 0 -8 5 -11 10 -3 6 -1 10 4 10 6 0
11 -4 11 -10z m49 -31 c-7 -14 -14 -18 -21 -11 -13 13 -2 32 18 32 12 0 13 -4
3 -21z m3581 11 c-20 -13 -33 -13 -25 0 3 6 14 10 23 10 15 0 15 -2 2 -10z
m-2920 -15 c0 -15 -70 -45 -104 -45 -43 0 -41 8 9 34 28 15 95 22 95 11z
m-820 -55 c0 -5 -9 -10 -20 -10 -11 0 -20 5 -20 10 0 6 9 10 20 10 11 0 20 -4
20 -10z m3060 -125 c3 -1 17 -7 31 -12 27 -12 67 -63 49 -63 -5 0 -10 -11 -10
-25 0 -18 -7 -28 -26 -35 -34 -13 -41 -13 -26 2 7 7 12 19 11 28 0 10 -2 11
-6 3 -8 -20 -21 -15 -25 10 -3 20 -5 18 -20 -13 -25 -55 -30 -87 -14 -103 8
-7 11 -18 8 -24 -9 -13 -62 -10 -90 6 -12 6 -26 10 -31 7 -4 -3 -48 -1 -97 5
-61 7 -90 7 -92 -1 -5 -15 -19 -12 -26 6 -3 8 -2 12 4 9 6 -3 10 -2 10 3 0 18
-33 23 -50 7 -19 -18 -67 -17 -95 2 -11 7 -14 13 -7 13 7 0 10 5 6 11 -5 8 -1
8 14 0 17 -9 19 -8 15 9 -3 10 -14 26 -24 36 -23 21 -24 34 -3 34 8 0 12 5 9
10 -13 22 14 36 65 34 28 -1 53 3 56 7 3 5 10 9 15 9 6 0 7 -4 4 -10 -3 -5 -1
-10 4 -10 6 0 11 9 11 20 0 13 7 20 20 20 11 0 20 -3 20 -7 0 -5 22 -7 50 -6
27 0 50 -3 50 -8 0 -5 8 -4 19 2 13 9 26 9 49 1 21 -7 34 -7 38 -1 4 6 11 6
20 -2 11 -9 14 -9 14 0 0 7 5 9 10 6 6 -3 10 1 10 9 0 9 -4 16 -10 16 -5 0
-10 5 -10 10 0 7 8 6 23 -2 12 -7 24 -13 27 -13z m-400 5 c13 -9 13 -11 0 -20
-21 -14 -37 -12 -43 4 -10 25 15 34 43 16z m145 0 c3 -5 1 -10 -4 -10 -6 0
-11 5 -11 10 0 6 2 10 4 10 3 0 8 -4 11 -10z m1887 -11 c147 -30 300 -105 392
-192 68 -64 69 -65 62 -107 -4 -27 -3 -39 4 -35 6 4 10 -4 10 -19 0 -16 -7
-27 -20 -31 -11 -4 -17 -11 -14 -17 5 -8 1 -9 -10 -5 -10 4 -15 3 -11 -3 3 -6
1 -10 -5 -10 -6 0 -8 -5 -5 -10 4 -6 1 -17 -5 -25 -10 -12 -10 -15 0 -15 8 0
11 -3 7 -6 -3 -4 0 -13 8 -21 8 -8 15 -26 15 -40 0 -27 -53 -127 -73 -140 -7
-4 -4 5 6 20 9 15 14 27 10 27 -5 0 -14 -9 -21 -20 -7 -12 -16 -19 -20 -16 -5
3 -26 1 -47 -4 -21 -5 -43 -6 -48 -3 -6 3 -24 7 -41 9 -40 3 -179 55 -236 87
-42 23 -46 24 -70 8 -18 -11 -13 -3 18 33 23 27 42 53 42 58 0 5 14 1 32 -8
66 -34 202 -74 254 -74 73 0 102 29 95 96 -1 6 -28 19 -61 28 -33 9 -60 19
-60 22 0 3 8 3 18 0 9 -2 33 -7 52 -10 29 -5 26 -3 -15 12 -63 24 -67 25 -85
22 -11 -1 -10 -4 5 -11 l20 -9 -20 4 c-11 3 -50 17 -88 32 -52 22 -66 32 -62
45 7 21 -19 29 -95 29 -39 0 -51 3 -40 10 13 9 13 10 0 10 -8 0 -38 15 -65 33
-34 23 -61 33 -85 33 -31 -1 -35 -4 -32 -26 2 -14 9 -34 17 -45 12 -19 9 -23
-40 -47 l-53 -26 -11 25 c-7 14 -14 44 -17 67 -5 36 -2 47 21 74 21 25 35 32
62 32 30 0 34 3 28 18 -4 9 -7 26 -7 37 1 20 71 89 107 105 28 12 114 12 177
-1z m-805 -145 c-5 -5 -57 13 -57 20 0 3 14 0 31 -6 16 -6 28 -12 26 -14z
m-2435 -34 c10 0 16 -4 13 -10 -9 -15 -46 -12 -75 6 l-25 15 34 -5 c18 -3 42
-6 53 -6z m1643 0 c3 -5 1 -10 -4 -10 -6 0 -11 5 -11 10 0 6 2 10 4 10 3 0 8
-4 11 -10z m795 -72 c0 -5 -4 -6 -10 -3 -6 3 -7 -1 -4 -9 5 -12 10 -13 25 -5
11 5 24 7 29 4 13 -8 13 -38 -1 -52 -7 -7 -4 -28 11 -69 12 -32 24 -70 27 -83
l6 -24 -32 19 c-24 14 -31 25 -31 49 0 16 -7 39 -15 49 -13 17 -15 18 -21 2
-3 -9 -4 -25 -1 -35 3 -14 1 -18 -9 -14 -8 3 -14 11 -14 19 0 8 -4 14 -10 14
-5 0 -10 5 -10 10 0 6 6 9 13 8 19 -4 20 56 1 98 -37 82 -38 77 6 53 22 -13
40 -27 40 -31z m-815 23 c-3 -6 -11 -8 -17 -5 -6 4 -5 9 3 15 16 10 23 4 14
-10z m1105 -35 c0 -8 -71 -12 -76 -4 -3 4 13 8 35 8 23 0 41 -2 41 -4z m-2137
-13 c-13 -2 -33 -2 -45 0 -13 2 -3 4 22 4 25 0 35 -2 23 -4z m2427 -8 c7 -9 8
-15 2 -15 -5 0 -12 7 -16 15 -3 8 -4 15 -2 15 2 0 9 -7 16 -15z m-460 -53 c0
-2 -7 1 -15 8 -8 7 -15 9 -15 4 0 -15 58 -123 63 -118 2 3 8 -8 11 -23 4 -15
9 -37 12 -48 5 -19 4 -19 -14 2 -13 14 -23 18 -29 12 -6 -6 -10 2 -11 25 -1
35 -26 107 -48 139 -6 10 -9 27 -6 39 5 19 6 18 28 -8 13 -15 24 -29 24 -32z
m27 -64 c-3 -8 -6 -5 -6 6 -1 11 2 17 5 13 3 -3 4 -12 1 -19z m-2900 6 c-3 -3
-12 -4 -19 -1 -8 3 -5 6 6 6 11 1 17 -2 13 -5z m2975 -34 c-2 -17 -6 -29 -8
-28 -6 7 -12 57 -7 62 12 12 19 -5 15 -34z m325 34 c-3 -3 -12 -4 -19 -1 -8 3
-5 6 6 6 11 1 17 -2 13 -5z m-3267 -19 c0 -8 -4 -15 -10 -15 -5 0 -7 7 -4 15
4 8 8 15 10 15 2 0 4 -7 4 -15z m-80 -25 c0 -5 -5 -10 -11 -10 -5 0 -7 5 -4
10 3 6 8 10 11 10 2 0 4 -4 4 -10z m2640 2 c0 -14 -11 -21 -26 -15 -8 3 -11 9
-8 14 7 11 34 12 34 1z m-2580 -12 c0 -5 -7 -10 -16 -10 -8 0 -12 5 -9 10 3 6
10 10 16 10 5 0 9 -4 9 -10z m47 -22 c-3 -8 -6 -5 -6 6 -1 11 2 17 5 13 3 -3
4 -12 1 -19z m2546 7 c-3 -9 -8 -14 -10 -11 -3 3 -2 9 2 15 9 16 15 13 8 -4z
m-2573 -17 c8 3 11 1 7 -4 -13 -14 -67 -11 -67 3 0 9 7 10 23 4 12 -4 29 -6
37 -3z m2950 -40 c0 -49 -5 -47 -14 5 -4 23 -3 37 4 37 5 0 10 -19 10 -42z
m-2140 12 c0 -5 -4 -10 -10 -10 -5 0 -10 5 -10 10 0 6 5 10 10 10 6 0 10 -4
10 -10z m-850 -20 c0 -5 -2 -10 -4 -10 -3 0 -8 5 -11 10 -3 6 -1 10 4 10 6 0
11 -4 11 -10z m75 -9 c3 -6 -3 -9 -14 -8 -11 0 -17 5 -15 9 7 11 22 10 29 -1z
m2995 -28 c0 -2 -10 -1 -22 2 l-21 7 22 -36 c13 -20 20 -36 17 -36 -6 0 -56
76 -56 84 0 3 14 0 30 -5 17 -6 30 -13 30 -16z m-1446 -18 c-4 -8 -10 -15 -15
-15 -4 0 -6 7 -3 15 4 8 10 15 15 15 4 0 6 -7 3 -15z m-614 1 c0 -3 -4 -8 -10
-11 -5 -3 -10 -1 -10 4 0 6 5 11 10 11 6 0 10 -2 10 -4z m687 -26 c-1 -11 -5
-20 -9 -20 -10 0 -10 4 -2 24 8 22 13 20 11 -4z m-122 0 c3 -5 1 -10 -4 -10
-6 0 -11 5 -11 10 0 6 2 10 4 10 3 0 8 -4 11 -10z m95 -31 c0 -5 -7 -6 -15 -3
-15 6 -18 -3 -18 -48 0 -10 -4 -18 -8 -18 -5 0 -9 6 -9 14 0 8 -6 17 -12 19
-8 4 -7 6 3 6 9 1 19 10 22 21 6 24 -1 25 -24 4 -16 -14 -17 -13 -15 9 1 22 3
23 39 14 20 -5 37 -13 37 -18z m153 16 c-3 -9 -8 -14 -10 -11 -3 3 -2 9 2 15
9 16 15 13 8 -4z m-833 1 c0 -2 -7 -7 -16 -10 -8 -3 -12 -2 -9 4 6 10 25 14
25 6z m867 -18 c-3 -8 -6 -5 -6 6 -1 11 2 17 5 13 3 -3 4 -12 1 -19z m526 15
c-7 -2 -21 -2 -30 0 -10 3 -4 5 12 5 17 0 24 -2 18 -5z m-1286 -35 c-5 -3 -16
-1 -22 5 -9 8 -9 14 -2 19 5 3 16 1 22 -5 9 -8 9 -14 2 -19z m1373 17 c0 -8
-2 -15 -4 -15 -2 0 -6 7 -10 15 -3 8 -1 15 4 15 6 0 10 -7 10 -15z m310 1 c0
-3 -4 -8 -10 -11 -5 -3 -10 -1 -10 4 0 6 5 11 10 11 6 0 10 -2 10 -4z m-1247
-35 c27 -11 55 -21 63 -21 8 0 14 -4 14 -10 0 -5 -9 -10 -20 -10 -11 0 -20 -4
-20 -9 0 -5 -12 -12 -27 -14 -28 -4 -28 -4 2 -5 17 -1 53 5 80 12 37 10 52 10
57 2 11 -17 9 -27 -4 -25 -28 3 -57 -13 -51 -29 5 -11 3 -13 -8 -7 -18 12 -49
14 -49 3 0 -4 4 -8 9 -8 12 0 23 -64 15 -94 l-6 -25 -34 25 c-19 15 -48 45
-64 67 -23 31 -30 36 -30 21 0 -10 16 -32 35 -48 19 -16 35 -33 35 -37 0 -4
-23 -10 -51 -14 -49 -7 -96 -36 -85 -54 8 -12 -182 -5 -222 7 -19 6 -40 16
-48 23 -7 6 -19 9 -25 7 -7 -2 16 -16 50 -32 33 -15 61 -31 61 -37 0 -8 -7
-10 -50 -14 -8 0 -20 -3 -25 -6 -24 -13 -46 -18 -40 -9 4 6 -8 10 -29 10 -20
0 -52 9 -73 21 l-38 21 29 -31 c67 -70 248 -90 293 -32 7 9 13 11 13 6 0 -6
18 -11 40 -12 22 -1 46 -5 52 -9 15 -9 -45 -32 -87 -33 -17 -1 -40 -7 -51 -15
-33 -24 -159 -28 -230 -8 -97 27 -103 34 -106 125 -2 42 -6 77 -9 77 -4 0 -12
-7 -19 -15 -11 -13 -10 -14 4 -9 12 4 15 2 10 -9 -3 -9 -22 -17 -45 -19 -32
-3 -39 0 -39 14 0 9 6 22 13 28 16 14 104 75 141 97 16 10 43 30 59 44 26 22
28 28 18 47 -10 18 -9 22 5 22 11 0 14 -5 10 -16 -4 -10 -1 -14 6 -11 7 2 12
14 11 26 -3 22 12 30 19 10 3 -8 14 -7 35 5 44 22 117 31 247 30 89 -1 120 -6
159 -23z m297 4 c0 -8 -4 -15 -10 -15 -5 0 -7 7 -4 15 4 8 8 15 10 15 2 0 4
-7 4 -15z m355 5 c3 -5 -1 -10 -10 -10 -9 0 -13 5 -10 10 3 6 8 10 10 10 2 0
7 -4 10 -10z m163 -9 c-13 -21 -48 -35 -48 -21 0 7 32 29 58 39 1 1 -3 -8 -10
-18z m1377 9 c13 -5 14 -9 5 -9 -8 0 -24 4 -35 9 -13 5 -14 9 -5 9 8 0 24 -4
35 -9z m-1819 -12 c-3 -7 -7 -27 -10 -45 -4 -25 -2 -31 9 -26 8 3 15 0 15 -6
0 -6 -9 -11 -20 -11 -12 0 -20 -7 -20 -16 0 -22 -24 -12 -28 12 -2 14 -1 16 6
5 12 -17 18 -6 27 44 4 22 10 43 12 48 7 12 13 8 9 -5z m114 7 c0 -2 -10 -9
-22 -15 -22 -11 -22 -10 -4 4 21 17 26 19 26 11z m760 -5 c0 -5 -2 -10 -4 -10
-3 0 -8 5 -11 10 -3 6 -1 10 4 10 6 0 11 -4 11 -10z m260 -10 c-8 -5 -23 -10
-32 -10 -21 0 -22 -8 -7 -47 9 -25 12 -26 20 -10 6 9 15 17 22 17 7 0 6 -4 -3
-10 -13 -8 -13 -13 3 -41 20 -36 19 -40 -10 -33 -15 4 -27 21 -37 52 -26 76
-21 88 39 91 16 1 17 -1 5 -9z m-1236 -25 c-4 -8 -8 -15 -10 -15 -2 0 -4 7 -4
15 0 8 4 15 10 15 5 0 7 -7 4 -15z m37 8 c-9 -4 -10 -7 -2 -12 8 -6 7 -17 -3
-42 -12 -27 -15 -29 -16 -12 0 12 5 25 11 29 8 5 8 9 -1 14 -14 9 -5 30 13 29
8 0 7 -3 -2 -6z m-126 -13 c3 -5 1 -10 -4 -10 -6 0 -11 5 -11 10 0 6 2 10 4
10 3 0 8 -4 11 -10z m44 -18 c-9 -1 -22 -13 -28 -25 -7 -14 -10 -15 -6 -4 3
10 5 25 5 32 0 9 7 11 23 7 16 -5 18 -7 6 -10z m586 8 c4 -6 -1 -7 -11 -3 -13
5 -16 3 -11 -10 5 -13 1 -17 -15 -17 -20 0 -21 1 -3 20 20 22 31 25 40 10z
m145 0 c0 -5 -5 -10 -11 -10 -5 0 -7 5 -4 10 3 6 8 10 11 10 2 0 4 -4 4 -10z
m-696 -25 c-4 -8 -8 -15 -10 -15 -2 0 -4 7 -4 15 0 8 4 15 10 15 5 0 7 -7 4
-15z m671 5 c3 -6 -1 -7 -9 -4 -18 7 -21 14 -7 14 6 0 13 -4 16 -10z m-213
-22 c-7 -7 -12 -8 -12 -2 0 14 12 26 19 19 2 -3 -1 -11 -7 -17z m248 12 c0 -5
-2 -10 -4 -10 -3 0 -8 5 -11 10 -3 6 -1 10 4 10 6 0 11 -4 11 -10z m674 -22
c-4 -6 -10 -5 -15 3 -14 22 -10 33 6 19 8 -7 12 -17 9 -22z m-986 -4 c2 -1 -5
-7 -16 -13 -17 -9 -19 -7 -19 15 0 21 2 23 16 12 9 -7 18 -13 19 -14z m262 17
c0 -9 -41 -23 -49 -16 -3 4 28 20 47 24 1 1 2 -3 2 -8z m1292 -16 c3 -13 1
-22 -3 -19 -9 5 -13 44 -5 44 2 0 6 -11 8 -25z m87 -2 c2 -2 -3 -3 -11 -3 -9
0 -19 7 -22 16 -6 15 -4 15 11 3 10 -7 20 -15 22 -16z m-1869 7 c8 -5 11 -10
5 -10 -5 0 -17 5 -25 10 -8 5 -10 10 -5 10 6 0 17 -5 25 -10z m370 -10 c0 -7
6 -7 19 0 32 16 36 12 8 -10 -14 -11 -33 -20 -44 -20 -10 -1 -43 -11 -73 -25
-38 -16 -57 -20 -62 -12 -8 13 -1 27 13 27 6 0 7 -4 4 -10 -9 -15 1 -12 61 16
30 14 52 30 49 35 -4 5 1 9 9 9 9 0 16 -5 16 -10z m800 -21 c0 -6 -4 -7 -10
-4 -5 3 -10 11 -10 16 0 6 5 7 10 4 6 -3 10 -11 10 -16z m-1427 4 c-7 -2 -19
-2 -25 0 -7 3 -2 5 12 5 14 0 19 -2 13 -5z m761 -17 c-10 -8 -21 -12 -24 -9
-3 2 4 11 14 19 11 7 22 12 25 9 2 -3 -4 -12 -15 -19z m-594 4 c0 -5 -2 -10
-4 -10 -3 0 -8 5 -11 10 -3 6 -1 10 4 10 6 0 11 -4 11 -10z m-174 -27 c13 -52
52 -113 45 -70 0 4 3 7 9 7 5 0 21 -22 34 -48 13 -27 32 -54 40 -61 9 -8 16
-18 16 -24 0 -6 -7 -2 -16 9 -11 13 -17 15 -20 6 -3 -6 -10 -10 -15 -7 -5 4
-6 -1 -3 -9 9 -23 -22 -20 -46 4 -11 11 -21 25 -22 32 -4 15 -9 23 -48 69 -16
20 -30 39 -30 43 0 12 28 6 40 -9 21 -25 31 -17 17 13 -23 43 -30 72 -18 72 6
0 14 -12 17 -27z m242 20 c-10 -2 -26 -2 -35 0 -10 3 -2 5 17 5 19 0 27 -2 18
-5z m1964 -46 c19 -37 1 -26 -26 16 -24 35 -24 39 -6 22 12 -11 26 -28 32 -38z
m-2136 29 c8 -8 14 -20 14 -26 0 -6 5 -8 10 -5 6 4 9 3 8 -2 -1 -4 3 -18 10
-30 22 -39 -5 -34 -33 6 -14 22 -33 42 -41 45 -8 3 -14 10 -14 16 0 15 29 12
46 -4z m1268 -2 c3 -8 2 -12 -4 -9 -6 3 -10 10 -10 16 0 14 7 11 14 -7z m745
-39 c0 -5 -6 1 -14 15 -8 14 -14 30 -14 35 0 6 6 -1 14 -15 8 -14 14 -29 14
-35z m43 33 c8 -13 18 -34 23 -48 6 -22 5 -23 -8 -10 -13 14 -40 80 -33 80 2
0 10 -10 18 -22z m-3215 6 c-3 -3 -12 -4 -19 -1 -8 3 -5 6 6 6 11 1 17 -2 13
-5z m-33 -30 c3 -8 2 -12 -4 -9 -6 3 -10 10 -10 16 0 14 7 11 14 -7z m1299 2
c4 -10 1 -13 -9 -9 -7 3 -14 9 -14 14 0 14 17 10 23 -5z m-1023 0 c0 -2 -7 -7
-16 -10 -8 -3 -12 -2 -9 4 6 10 25 14 25 6z m1403 -9 c15 9 70 12 60 2 -13
-11 -93 -22 -93 -12 0 15 14 25 18 14 2 -6 9 -8 15 -4z m-1538 -15 c-3 -3 -11
0 -18 7 -9 10 -8 11 6 5 10 -3 15 -9 12 -12z m38 -19 c-7 -18 -10 -19 -21 -7
-11 12 -10 14 3 14 8 0 15 5 15 12 0 6 2 9 5 6 3 -3 2 -14 -2 -25z m57 22 c0
-2 -9 -9 -20 -15 -12 -6 -20 -7 -20 -1 0 5 8 12 18 14 9 3 18 5 20 6 1 0 2 -1
2 -4z m1108 -128 c11 -26 11 -27 -7 -17 -21 11 -34 1 -23 -16 4 -6 14 -14 22
-17 13 -4 12 -6 -1 -6 -17 -1 -46 26 -37 35 3 2 -10 20 -28 38 -19 19 -34 40
-34 48 1 8 8 4 19 -9 15 -17 20 -19 24 -9 3 8 -1 22 -8 33 -8 10 -15 21 -15
25 0 14 76 -77 88 -105z m1187 73 c3 -5 1 -10 -4 -10 -6 0 -11 5 -11 10 0 6 2
10 4 10 3 0 8 -4 11 -10z m-2245 -48 c0 -15 -2 -15 -10 -2 -13 20 -13 33 0 25
6 -3 10 -14 10 -23z m40 8 c0 -5 -4 -10 -10 -10 -5 0 -10 5 -10 10 0 6 5 10
10 10 6 0 10 -4 10 -10z m1140 -30 c0 -4 11 -5 24 -3 13 3 26 1 29 -4 6 -9
-37 -8 -70 2 -28 9 -31 25 -3 18 11 -3 20 -9 20 -13z m1285 10 c3 -5 1 -10 -4
-10 -6 0 -11 5 -11 10 0 6 2 10 4 10 3 0 8 -4 11 -10z m-115 -10 c0 -5 -2 -10
-4 -10 -3 0 -8 5 -11 10 -3 6 -1 10 4 10 6 0 11 -4 11 -10z m-2317 -7 c-7 -2
-19 -2 -25 0 -7 3 -2 5 12 5 14 0 19 -2 13 -5z m807 -14 c0 -5 -4 -9 -10 -9
-5 0 -10 7 -10 16 0 8 5 12 10 9 6 -3 10 -10 10 -16z m533 10 c10 0 21 -8 24
-17 4 -9 11 -20 17 -24 6 -5 2 -8 -11 -8 -16 0 -20 5 -16 20 7 25 -12 26 -27
3 -11 -17 -11 -17 -6 1 5 13 2 17 -9 13 -8 -4 -29 1 -47 9 l-33 15 45 -6 c25
-4 53 -6 63 -6z m-683 -19 c0 -5 -4 -10 -10 -10 -5 0 -10 5 -10 10 0 6 5 10
10 10 6 0 10 -4 10 -10z m780 6 c0 -2 -11 -6 -25 -8 -14 -3 -25 -1 -25 3 0 5
11 9 25 9 14 0 25 -2 25 -4z m70 -11 c0 -2 -13 -5 -30 -7 -19 -3 -30 0 -30 7
0 7 11 10 30 7 17 -2 30 -5 30 -7z m-735 -15 c10 -16 74 -40 107 -40 26 0 29
3 23 23 -6 20 -5 21 8 5 8 -10 22 -18 33 -18 14 0 15 -3 6 -12 -18 -18 -119
-12 -182 11 -30 11 -47 20 -37 20 9 1 17 6 17 11 0 13 17 13 25 0z m1375 0 c0
-5 -2 -10 -4 -10 -3 0 -8 5 -11 10 -3 6 -1 10 4 10 6 0 11 -4 11 -10z m-1155
-40 c3 -5 -1 -10 -10 -10 -9 0 -13 5 -10 10 3 6 8 10 10 10 2 0 7 -4 10 -10z
m-855 -9 c10 -2 7 -5 -8 -11 -22 -10 -52 -4 -52 10 0 7 12 7 60 1z m50 -15 c0
-2 -9 -6 -20 -9 -11 -3 -18 -1 -14 4 5 9 34 13 34 5z m1940 -6 c8 -5 11 -10 5
-10 -5 0 -17 5 -25 10 -8 5 -10 10 -5 10 6 0 17 -5 25 -10z m114 -6 c4 -10 1
-14 -6 -12 -15 5 -23 28 -10 28 5 0 13 -7 16 -16z m-1961 -11 c-3 -15 13 -17
22 -3 3 6 10 10 16 10 16 0 10 -19 -11 -30 -15 -8 -24 -6 -39 9 -11 11 -21 17
-24 15 -2 -2 -15 0 -28 6 -20 8 -17 9 21 7 30 -1 44 -6 43 -14z m196 -19 c10
-9 -35 -3 -49 6 -11 8 -7 9 15 4 17 -4 32 -8 34 -10z m-236 -1 c-7 -2 -19 -2
-25 0 -7 3 -2 5 12 5 14 0 19 -2 13 -5z"/>
<path d="M4822 3993 c14 -16 34 -52 44 -80 22 -61 38 -70 28 -15 -7 42 -23 71
-56 102 -33 30 -46 24 -16 -7z"/>
<path d="M4790 3991 c0 -5 7 -15 17 -22 15 -13 15 -12 4 9 -12 23 -21 28 -21
13z"/>
<path d="M4496 3854 c-24 -64 18 -174 79 -207 13 -7 9 2 -13 27 -42 48 -54 78
-54 144 -1 56 -3 61 -12 36z"/>
<path d="M4878 3752 c-4 -12 -2 -22 2 -22 5 0 12 -9 15 -21 4 -11 9 -19 11
-16 2 2 -2 21 -9 42 -12 34 -14 36 -19 17z"/>
<path d="M4870 3685 c-7 -9 -11 -18 -8 -20 3 -3 11 1 18 10 7 9 11 18 8 20 -3
3 -11 -1 -18 -10z"/>
<path d="M5190 3201 c0 -5 7 -11 15 -15 8 -3 15 -1 15 3 0 5 -7 11 -15 15 -8
3 -15 1 -15 -3z"/>
<path d="M5283 3203 c-7 -2 -13 -12 -13 -20 0 -11 -6 -14 -22 -10 -23 6 -23 6
-3 -9 12 -9 21 -11 23 -4 2 5 11 10 20 10 15 0 15 2 2 10 -13 8 -12 10 3 10 9
0 17 5 17 10 0 11 -7 12 -27 3z"/>
<path d="M5470 3183 c0 -7 -7 -10 -15 -7 -8 4 -15 1 -15 -5 0 -6 8 -11 17 -11
9 0 30 -12 45 -27 15 -15 28 -22 28 -15 0 6 -5 14 -10 17 -6 4 -8 11 -5 16 4
5 -1 9 -9 9 -8 0 -20 8 -25 18 -6 9 -11 12 -11 5z"/>
<path d="M5150 3170 c0 -5 -10 -10 -22 -10 -19 0 -20 -2 -8 -10 23 -15 37 -12
43 10 3 11 1 20 -4 20 -5 0 -9 -4 -9 -10z"/>
<path d="M5384 3169 c-7 -12 5 -31 16 -24 10 6 40 -4 40 -15 0 -4 -11 -7 -25
-7 -14 0 -25 3 -25 8 0 13 -44 15 -70 2 -19 -10 -26 -10 -32 0 -6 9 -8 9 -8 0
0 -18 32 -53 47 -53 7 0 13 5 13 11 0 6 -7 9 -15 5 -23 -8 -18 0 10 18 24 16
27 16 53 -3 26 -18 29 -18 48 -2 19 15 19 18 5 41 -16 25 -47 35 -57 19z"/>
<path d="M4713 3163 c9 -2 23 -2 30 0 6 3 -1 5 -18 5 -16 0 -22 -2 -12 -5z"/>
<path d="M5206 3136 c21 -15 30 -14 19 3 -3 6 -14 11 -23 11 -13 0 -13 -2 4
-14z"/>
<path d="M5530 3141 c0 -6 5 -13 10 -16 6 -3 10 1 10 9 0 9 -4 16 -10 16 -5 0
-10 -4 -10 -9z"/>
<path d="M5030 3110 c0 -5 9 -10 20 -10 11 0 20 5 20 10 0 6 -9 10 -20 10 -11
0 -20 -4 -20 -10z"/>
<path d="M5355 3099 c-4 -6 -5 -12 -2 -15 2 -3 7 2 10 11 7 17 1 20 -8 4z"/>
<path d="M5625 3100 c3 -5 11 -10 16 -10 6 0 7 5 4 10 -3 6 -11 10 -16 10 -6
0 -7 -4 -4 -10z"/>
<path d="M4998 3093 c6 -2 10 -8 7 -13 -3 -4 2 -11 11 -14 12 -5 15 -2 10 10
-3 8 -6 18 -6 20 0 2 -8 4 -17 3 -11 0 -13 -3 -5 -6z"/>
<path d="M5740 3091 c0 -6 5 -13 10 -16 6 -3 10 1 10 9 0 9 -4 16 -10 16 -5 0
-10 -4 -10 -9z"/>
<path d="M4820 3064 c0 -8 -3 -13 -8 -10 -11 6 -47 -22 -38 -31 4 -4 10 -2 14
4 4 6 18 13 32 14 27 4 42 39 16 39 -9 0 -16 -7 -16 -16z"/>
<path d="M5320 3060 c0 -5 5 -10 10 -10 6 0 10 5 10 10 0 6 -4 10 -10 10 -5 0
-10 -4 -10 -10z"/>
<path d="M5625 3051 c-3 -5 -1 -12 5 -16 5 -3 10 1 10 9 0 18 -6 21 -15 7z"/>
<path d="M5103 3037 c-3 -6 -1 -7 5 -3 7 4 12 2 12 -4 0 -6 5 -8 10 -5 6 3 10
10 10 14 0 11 -30 9 -37 -2z"/>
<path d="M4680 3030 c-9 -6 -10 -10 -3 -10 6 0 15 5 18 10 8 12 4 12 -15 0z"/>
<path d="M5470 3026 c0 -8 4 -17 9 -21 6 -3 9 4 8 15 -1 23 -17 28 -17 6z"/>
<path d="M4859 3003 c-13 -14 -19 -23 -12 -19 7 4 17 -2 23 -14 9 -16 8 -20
-6 -20 -11 0 -14 -5 -10 -16 3 -9 6 -20 6 -25 0 -5 10 -9 23 -9 12 0 17 4 12
8 -15 10 -13 34 4 40 8 3 11 0 8 -6 -4 -5 0 -15 7 -21 9 -8 16 -8 20 -2 4 6
14 7 22 4 14 -5 14 -2 -1 26 -9 18 -14 36 -10 39 3 3 8 -4 12 -16 3 -12 9 -22
13 -22 5 0 11 -9 15 -19 7 -22 38 -37 43 -22 2 6 8 9 13 5 5 -3 9 0 9 5 0 6
-5 11 -12 11 -6 0 -8 3 -5 7 4 3 -2 12 -13 20 -11 8 -17 20 -14 28 5 11 -1 15
-19 15 -14 0 -32 3 -41 6 -10 4 -16 1 -16 -10 0 -8 -9 -20 -20 -26 -17 -9 -20
-7 -26 14 -3 14 -3 30 1 35 11 19 -1 12 -26 -16z"/>
<path d="M5035 2990 c21 -24 26 -25 19 -6 -3 8 -13 17 -22 21 -13 5 -13 2 3
-15z"/>
<path d="M5120 3006 c0 -2 7 -7 16 -10 8 -3 12 -2 9 4 -6 10 -25 14 -25 6z"/>
<path d="M6055 2990 c3 -5 14 -10 23 -10 15 0 15 2 2 10 -20 13 -33 13 -25 0z"/>
<path d="M5670 2980 c0 -5 5 -10 11 -10 5 0 7 5 4 10 -3 6 -8 10 -11 10 -2 0
-4 -4 -4 -10z"/>
<path d="M5182 2947 c-9 -10 -3 -13 26 -14 34 -1 35 0 17 13 -23 17 -30 17
-43 1z"/>
<path d="M6080 2956 c0 -2 7 -9 15 -16 13 -11 14 -10 9 4 -5 14 -24 23 -24 12z"/>
<path d="M6120 2926 c0 -2 8 -10 18 -17 15 -13 16 -12 3 4 -13 16 -21 21 -21
13z"/>
<path d="M4770 2910 c0 -5 5 -10 11 -10 5 0 7 5 4 10 -3 6 -8 10 -11 10 -2 0
-4 -4 -4 -10z"/>
<path d="M4750 2880 c0 -5 7 -10 16 -10 8 0 12 5 9 10 -3 6 -10 10 -16 10 -5
0 -9 -4 -9 -10z"/>
<path d="M5440 2881 c0 -6 4 -13 10 -16 6 -3 7 1 4 9 -7 18 -14 21 -14 7z"/>
<path d="M4628 2813 c7 -3 16 -2 19 1 4 3 -2 6 -13 5 -11 0 -14 -3 -6 -6z"/>
<path d="M5350 2811 c0 -5 5 -13 10 -16 6 -3 10 -2 10 4 0 5 -4 13 -10 16 -5
3 -10 2 -10 -4z"/>
<path d="M5150 2760 c0 -5 5 -10 11 -10 5 0 7 5 4 10 -3 6 -8 10 -11 10 -2 0
-4 -4 -4 -10z"/>
<path d="M5750 2601 c0 -5 11 -11 25 -13 28 -6 34 6 9 16 -22 8 -34 7 -34 -3z"/>
<path d="M4404 2589 c-3 -5 4 -9 14 -9 21 0 49 -27 38 -37 -3 -3 2 -15 11 -25
15 -16 15 -21 3 -28 -16 -10 -33 -3 -25 11 4 5 -1 9 -10 9 -23 0 -1 -38 31
-52 15 -7 24 -20 24 -35 0 -19 5 -23 33 -23 18 0 38 5 44 11 8 8 21 8 48 -1
20 -7 38 -10 40 -8 4 4 -15 84 -29 121 -11 28 -84 65 -104 53 -6 -3 -12 -2
-14 3 -4 11 -97 21 -104 10z"/>
<path d="M5686 2564 c-3 -9 -6 -19 -6 -24 0 -13 30 -40 43 -40 8 0 7 3 -2 9
-8 5 -14 23 -15 40 -1 34 -10 40 -20 15z"/>
<path d="M3980 2544 c0 -14 3 -14 15 -4 8 7 15 14 15 16 0 2 -7 4 -15 4 -8 0
-15 -7 -15 -16z"/>
<path d="M5751 2538 c10 -18 13 -20 17 -8 3 8 10 18 16 22 6 4 -2 8 -17 8 -26
0 -27 -2 -16 -22z"/>
<path d="M5526 2543 c-10 -10 -7 -43 4 -43 5 0 14 9 19 19 8 14 7 20 -3 24 -8
3 -17 3 -20 0z"/>
<path d="M5806 2532 c-4 -12 -13 -22 -19 -22 -7 0 -3 -8 8 -17 20 -15 20 -15
-2 -10 -13 3 -26 1 -29 -4 -3 -5 -1 -9 4 -9 5 0 12 -9 15 -20 9 -33 22 -23 34
28 11 49 2 95 -11 54z"/>
<path d="M5864 2528 c-5 -7 -2 -9 7 -4 8 4 4 -2 -9 -13 l-23 -20 23 -14 c23
-15 88 -21 88 -9 -1 20 -20 34 -42 30 -21 -4 -24 -1 -20 19 4 24 -11 32 -24
11z"/>
<path d="M5635 2520 c-3 -5 -1 -10 4 -10 6 0 11 5 11 10 0 6 -2 10 -4 10 -3 0
-8 -4 -11 -10z"/>
<path d="M5745 2500 c-3 -5 -1 -10 4 -10 6 0 11 5 11 10 0 6 -2 10 -4 10 -3 0
-8 -4 -11 -10z"/>
<path d="M4733 2483 c9 -2 23 -2 30 0 6 3 -1 5 -18 5 -16 0 -22 -2 -12 -5z"/>
<path d="M6077 2469 c-6 -24 1 -49 14 -49 5 0 9 12 9 26 0 14 4 23 10 19 6 -3
10 1 10 9 0 24 -37 19 -43 -5z"/>
<path d="M5524 2465 c11 -8 22 -12 25 -9 6 6 -19 24 -34 24 -5 -1 -1 -7 9 -15z"/>
<path d="M5556 2444 c-11 -8 -16 -14 -10 -14 13 0 39 18 34 24 -3 2 -14 -2
-24 -10z"/>
<path d="M5825 2440 c3 -5 8 -10 11 -10 2 0 4 5 4 10 0 6 -5 10 -11 10 -5 0
-7 -4 -4 -10z"/>
<path d="M5758 2415 c-5 -25 -4 -25 10 -11 12 11 13 19 5 27 -7 7 -12 3 -15
-16z"/>
<path d="M5868 2433 c7 -3 16 -2 19 1 4 3 -2 6 -13 5 -11 0 -14 -3 -6 -6z"/>
<path d="M4252 2350 c0 -14 2 -19 5 -12 2 6 2 18 0 25 -3 6 -5 1 -5 -13z"/>
<path d="M4430 2330 c0 -5 6 -10 13 -10 10 0 13 -12 10 -45 -3 -28 0 -45 6
-45 6 0 11 5 11 10 0 6 7 10 15 10 23 0 18 28 -6 35 -12 4 -18 12 -15 21 3 7
-4 18 -14 24 -14 7 -20 7 -20 0z"/>
<path d="M5720 2295 c-7 -8 -8 -15 -2 -15 5 0 15 7 22 15 7 8 8 15 2 15 -5 0
-15 -7 -22 -15z"/>
<path d="M5836 2275 c6 -16 54 -21 54 -6 0 5 -10 11 -22 15 -34 9 -38 7 -32
-9z"/>
<path d="M4540 2231 c0 -6 5 -13 10 -16 6 -3 10 1 10 9 0 9 -4 16 -10 16 -5 0
-10 -4 -10 -9z"/>
<path d="M4463 2092 c-18 -2 -33 -8 -33 -13 0 -10 58 -3 69 7 8 7 -4 9 -36 6z"/>
<path d="M4395 2060 c-3 -6 1 -7 9 -4 18 7 21 14 7 14 -6 0 -13 -4 -16 -10z"/>
<path d="M4090 1915 c0 -21 27 -38 46 -27 14 8 12 11 -15 25 -24 12 -31 13
-31 2z"/>
<path d="M4100 1858 c0 -9 5 -20 10 -23 13 -8 13 5 0 25 -8 13 -10 13 -10 -2z"/>
<path d="M4135 1799 c-11 -17 0 -20 21 -4 17 13 17 14 2 15 -9 0 -20 -5 -23
-11z"/>
<path d="M4739 1792 c-8 -12 -20 -17 -35 -14 -16 3 -26 -1 -30 -12 -3 -9 -14
-16 -23 -17 -10 0 -12 -2 -3 -6 7 -3 19 0 27 7 11 9 13 6 11 -14 -2 -15 0 -26
5 -26 4 0 6 -15 4 -32 -3 -30 -3 -31 7 -10 10 19 17 21 47 16 20 -3 31 -2 24
3 -6 4 -14 20 -18 34 -5 21 -2 30 16 42 13 10 19 22 16 31 -9 22 -34 20 -48
-2z"/>
<path d="M4095 1750 c3 -5 8 -10 11 -10 2 0 4 5 4 10 0 6 -5 10 -11 10 -5 0
-7 -4 -4 -10z"/>
<path d="M4108 1678 c-16 -5 -28 -14 -28 -20 0 -6 -7 -8 -15 -4 -8 3 -15 1
-15 -4 0 -14 15 -12 55 4 19 8 35 20 35 25 0 6 -1 11 -2 10 -2 0 -15 -5 -30
-11z"/>
<path d="M4190 1639 c0 -17 54 -61 64 -52 3 4 6 13 6 22 0 13 -2 14 -9 2 -7
-11 -14 -8 -35 15 -17 20 -25 24 -26 13z"/>
<path d="M4120 1630 c0 -5 5 -10 11 -10 5 0 7 5 4 10 -3 6 -8 10 -11 10 -2 0
-4 -4 -4 -10z"/>
<path d="M4167 1611 c3 -10 0 -22 -6 -25 -15 -10 -14 -43 2 -49 10 -4 14 7 15
38 1 24 -2 46 -7 49 -5 3 -7 -2 -4 -13z"/>
<path d="M4121 1563 c0 -25 1 -26 9 -8 12 27 12 35 0 35 -5 0 -10 -12 -9 -27z"/>
<path d="M4206 1505 c-3 -8 -16 -20 -28 -25 -13 -5 -17 -9 -10 -9 6 -1 12 -6
12 -12 0 -5 -4 -7 -10 -4 -5 3 -10 1 -10 -4 0 -6 7 -11 15 -11 8 0 15 5 15 10
0 6 4 10 10 10 5 0 7 -7 4 -15 -5 -11 1 -15 18 -15 22 0 24 4 24 42 -1 31 -5
44 -17 46 -9 2 -19 -4 -23 -13z"/>
<path d="M4260 1500 c0 -5 5 -10 10 -10 6 0 10 -7 10 -15 0 -8 5 -15 10 -15
13 0 12 11 -4 33 -15 19 -26 22 -26 7z"/>
<path d="M6440 1431 c0 -6 5 -13 10 -16 6 -3 10 1 10 9 0 9 -4 16 -10 16 -5 0
-10 -4 -10 -9z"/>
<path d="M6480 1430 c0 -5 5 -10 10 -10 6 0 10 5 10 10 0 6 -4 10 -10 10 -5 0
-10 -4 -10 -10z"/>
<path d="M6075 1410 c-3 -5 1 -10 9 -10 9 0 16 5 16 10 0 6 -4 10 -9 10 -6 0
-13 -4 -16 -10z"/>
<path d="M5410 1070 c0 -5 5 -10 10 -10 6 0 10 5 10 10 0 6 -4 10 -10 10 -5 0
-10 -4 -10 -10z"/>
<path d="M5520 1016 c0 -2 8 -10 18 -17 15 -13 16 -12 3 4 -13 16 -21 21 -21
13z"/>
<path d="M5608 1005 c-8 -8 14 -54 28 -59 7 -3 7 6 0 30 -11 33 -17 40 -28 29z"/>
<path d="M3803 938 c-2 -5 14 -8 36 -8 23 0 41 4 41 8 0 10 -70 10 -77 0z"/>
<path d="M4118 903 c6 -2 18 -2 25 0 6 3 1 5 -13 5 -14 0 -19 -2 -12 -5z"/>
<path d="M5615 880 c3 -5 11 -10 16 -10 6 0 7 5 4 10 -3 6 -11 10 -16 10 -6 0
-7 -4 -4 -10z"/>
<path d="M6205 870 c4 -6 11 -8 16 -5 14 9 11 15 -7 15 -8 0 -12 -5 -9 -10z"/>
<path d="M4785 845 c-27 -7 -72 -11 -100 -9 -27 3 -86 -2 -130 -10 l-80 -14
128 3 c72 2 127 -1 127 -6 0 -5 5 -9 11 -9 5 0 8 4 5 8 -9 15 185 -4 343 -33
l26 -5 -26 12 c-26 13 -29 17 -29 38 0 6 -14 10 -31 10 -19 0 -28 -4 -23 -11
3 -6 15 -9 25 -6 10 3 22 0 26 -6 4 -7 -11 -8 -48 -4 -30 4 -69 7 -87 7 -40 0
-34 20 6 21 l27 1 -30 13 c-37 17 -76 17 -140 0z"/>
<path d="M4125 835 c-40 -14 -40 -14 -5 -9 19 4 39 10 45 15 11 11 10 11 -40
-6z"/>
<path d="M6173 843 c-7 -3 -13 -11 -13 -19 0 -8 -7 -14 -15 -14 -8 0 -15 -4
-15 -10 0 -12 13 -13 24 -2 4 4 12 7 17 7 5 0 8 3 7 7 -2 4 5 13 16 21 19 14
7 19 -21 10z"/>
<path d="M5518 834 c6 -3 9 -10 6 -16 -4 -6 -1 -9 5 -7 19 7 14 24 -6 26 -10
2 -12 0 -5 -3z"/>
<path d="M4150 810 c-10 -7 5 -9 50 -9 51 1 58 3 35 9 -43 11 -68 11 -85 0z"/>
<path d="M4698 803 c7 -3 16 -2 19 1 4 3 -2 6 -13 5 -11 0 -14 -3 -6 -6z"/>
<path d="M4580 790 c-9 -6 -10 -10 -3 -10 6 0 15 5 18 10 8 12 4 12 -15 0z"/>
<path d="M5165 750 c11 -5 27 -9 35 -9 9 0 8 4 -5 9 -11 5 -27 9 -35 9 -9 0
-8 -4 5 -9z"/>
<path d="M4911 2444 c0 -11 3 -14 6 -6 3 7 2 16 -1 19 -3 4 -6 -2 -5 -13z"/>
<path d="M5960 1970 c0 -5 12 -10 26 -10 14 0 23 4 19 10 -3 6 -15 10 -26 10
-10 0 -19 -4 -19 -10z"/>
<path d="M5896 1955 c4 -8 10 -12 15 -9 14 8 10 24 -6 24 -9 0 -12 -6 -9 -15z"/>
<path d="M5282 1731 c-9 -5 -2 -8 20 -9 23 -1 28 2 18 8 -18 12 -22 12 -38 1z"/>
<path d="M5260 1649 c0 -21 1 -22 24 -13 22 8 20 21 -4 27 -15 4 -20 0 -20
-14z"/>
<path d="M5666 1631 c-4 -7 -5 -15 -2 -18 9 -9 19 4 14 18 -4 11 -6 11 -12 0z"/>
<path d="M5055 1580 c3 -5 14 -10 23 -10 15 0 15 2 2 10 -20 13 -33 13 -25 0z"/>
<path d="M5116 1435 c4 -8 10 -12 15 -9 14 8 10 24 -6 24 -9 0 -12 -6 -9 -15z"/>
<path d="M5075 1430 c-3 -6 1 -7 9 -4 18 7 21 14 7 14 -6 0 -13 -4 -16 -10z"/>
<path d="M3511 1294 c0 -11 3 -14 6 -6 3 7 2 16 -1 19 -3 4 -6 -2 -5 -13z"/>
<path d="M2635 1020 c-3 -6 1 -7 9 -4 18 7 21 14 7 14 -6 0 -13 -4 -16 -10z"/>
<path d="M3154 995 c-10 -8 -14 -14 -9 -15 15 0 40 18 34 24 -3 3 -14 -1 -25
-9z"/>
<path d="M4955 1160 c3 -5 8 -10 11 -10 2 0 4 5 4 10 0 6 -5 10 -11 10 -5 0
-7 -4 -4 -10z"/>
<path d="M6473 1194 c-8 -22 23 -79 50 -92 12 -6 46 -16 76 -23 104 -23 190
-62 262 -120 51 -41 179 -43 179 -4 0 53 -81 123 -137 119 -19 -1 -31 3 -30
10 1 6 -13 12 -33 13 -34 3 -33 2 22 -27 31 -16 59 -34 62 -39 4 -5 -13 1 -36
13 -24 12 -76 35 -115 51 -40 15 -73 30 -73 33 0 2 16 1 36 -3 24 -4 34 -3 29
4 -3 6 -17 11 -31 11 -14 0 -23 3 -21 8 3 4 -14 8 -36 9 -39 2 -38 0 2 -13 8
-2 11 -7 8 -10 -3 -3 -24 0 -47 7 -34 10 -38 14 -24 20 16 6 15 8 -8 14 -16 4
-28 11 -28 16 0 4 -9 6 -20 4 -11 -2 -20 0 -20 6 0 5 -5 9 -11 9 -5 0 -7 -4
-4 -10 3 -5 -1 -10 -10 -10 -9 0 -13 5 -10 10 3 6 -1 10 -10 10 -8 0 -18 -7
-22 -16z m27 -18 c0 -3 -4 -8 -10 -11 -5 -3 -10 -1 -10 4 0 6 5 11 10 11 6 0
10 -2 10 -4z"/>
<path d="M6785 1110 c3 -5 12 -7 20 -3 21 7 19 13 -6 13 -11 0 -18 -4 -14 -10z"/>
<path d="M6680 912 c0 -7 95 -46 114 -47 5 0 11 5 13 10 2 6 -9 10 -24 11 -16
0 -45 8 -65 17 -21 10 -38 14 -38 9z"/>
<path d="M5810 951 c0 -6 4 -13 10 -16 6 -3 7 1 4 9 -7 18 -14 21 -14 7z"/>
<path d="M4211 548 c-45 -20 -53 -27 -106 -87 -28 -31 -28 -32 -5 -18 14 9 34
28 44 42 21 27 42 34 32 10 -6 -17 9 -21 19 -5 3 6 11 10 16 10 12 0 -8 -20
-36 -36 -10 -6 -21 -16 -23 -23 -3 -8 20 4 49 26 30 22 73 50 96 61 23 12 44
26 48 32 8 14 -51 13 -77 -1 -15 -8 -19 -8 -14 0 9 13 11 14 -43 -11z"/>
<path d="M4371 533 c-21 -9 -59 -44 -77 -72 -15 -23 -13 -23 17 6 19 17 50 40
69 52 32 19 26 28 -9 14z"/>
<path d="M4487 529 c7 -7 15 -10 18 -7 3 3 -2 9 -12 12 -14 6 -15 5 -6 -5z"/>
<path d="M4465 490 c-3 -5 -2 -10 4 -10 5 0 13 5 16 10 3 6 2 10 -4 10 -5 0
-13 -4 -16 -10z"/>
<path d="M3996 394 c-21 -19 -25 -25 -12 -23 10 2 25 14 34 27 19 28 14 27
-22 -4z"/>
<path d="M4050 400 c-13 -8 -12 -10 3 -10 9 0 17 5 17 10 0 12 -1 12 -20 0z"/>
<path d="M4240 392 c0 -6 9 -12 20 -15 11 -3 20 -3 20 -1 0 2 -9 8 -20 14 -11
6 -20 7 -20 2z"/>
<path d="M4128 333 c7 -3 16 -2 19 1 4 3 -2 6 -13 5 -11 0 -14 -3 -6 -6z"/>
<path d="M3998 233 c5 -21 7 -23 10 -9 2 10 0 22 -6 28 -6 6 -7 0 -4 -19z"/>
<path d="M4024 205 c3 -21 16 -31 16 -12 0 9 -4 18 -9 21 -5 4 -8 -1 -7 -9z"/>
</g>
</svg>
